<svg width="38" height="32" viewBox="0 0 38 32" fill="none" xmlns="http://www.w3.org/2000/svg">
<path fill-rule="evenodd" clip-rule="evenodd" d="M25.8521 31.1221V17.0844L38 10.0708V23.5711C38 23.912 37.8297 24.2068 37.5345 24.3773L25.8521 31.1221ZM11.2391 24.1452H1.43762C0.643699 24.1452 0 23.5015 0 22.7076C0 21.9137 0.643699 21.27 1.43762 21.27H11.188C12.8739 21.27 12.8739 18.5775 11.188 18.5775H5.32868C4.53477 18.5775 3.89099 17.9338 3.89099 17.1399C3.89099 16.3459 4.53477 15.7022 5.32868 15.7022H9.91139C11.5973 15.7022 11.5973 13.0097 9.91139 13.0097H1.43769C0.643773 13.0097 7.42188e-05 12.366 7.42188e-05 11.5721C7.42188e-05 10.7782 0.643773 10.1345 1.43769 10.1345H11.2856L23.3235 17.0846V31.1221L11.2391 24.1452ZM12.4308 7.88329L24.5878 14.9021L36.7447 7.88321L24.6111 0.87793H16.6501C15.8562 0.87793 15.2125 1.52163 15.2125 2.31555C15.2125 3.10947 15.8562 3.75316 16.6501 3.75316H18.3325C18.487 3.75316 18.6165 3.85254 18.6565 4.0018C18.6964 4.15105 18.634 4.30186 18.5002 4.3792L12.4308 7.88329ZM11.7388 0.87793C12.5327 0.87793 13.1764 1.52163 13.1764 2.31555C13.1764 3.10947 12.5327 3.75316 11.7388 3.75316H3.00052C2.2066 3.75316 1.56282 3.10947 1.56282 2.31555C1.56282 1.52163 2.20652 0.87793 3.00052 0.87793H11.7388Z" fill="black" fill-opacity="0.9"/>
</svg>
