<svg width="30" height="38" viewBox="0 0 30 38" fill="none" xmlns="http://www.w3.org/2000/svg">
<path d="M9.11966 29.3256C8.39277 29.3256 7.71589 28.9996 7.26279 28.4313L5.67213 26.4368L4.27266 25.7628L0.618797 33.1118C0.528785 33.2929 0.486491 33.4939 0.495922 33.6959C0.505353 33.8979 0.566197 34.0941 0.672689 34.2659C0.779181 34.4378 0.927793 34.5797 1.10445 34.678C1.2811 34.7764 1.47994 34.828 1.68213 34.828H1.6848L5.07407 34.8204L7.11368 37.5272C7.23548 37.6889 7.3966 37.8167 7.58172 37.8986C7.76684 37.9805 7.96981 38.0136 8.17137 37.995C8.37293 37.9764 8.56638 37.9065 8.73335 37.7921C8.90032 37.6777 9.03527 37.5224 9.12538 37.3412L12.8325 29.885L11.6708 29.3256H9.11966ZM29.381 33.1118L25.7271 25.7627L24.3277 26.4367L22.737 28.4313C22.2839 28.9995 21.6071 29.3255 20.8801 29.3255H18.3289L17.1673 29.885L20.8744 37.3411C20.9728 37.539 21.1244 37.7055 21.3123 37.8219C21.5002 37.9383 21.7168 38 21.9378 38C22.3084 38 22.6605 37.8264 22.8861 37.5271L24.9257 34.8203L28.3149 34.8279H28.3176C28.5198 34.828 28.7187 34.7764 28.8954 34.678C29.072 34.5797 29.2207 34.4378 29.3272 34.2659C29.4337 34.0941 29.4945 33.8978 29.5039 33.6958C29.5133 33.4938 29.4711 33.2928 29.381 33.1118Z" fill="black" fill-opacity="0.9"/>
<path d="M20.8802 28.1381C21.2416 28.1381 21.5834 27.9736 21.8086 27.691L23.5683 25.4845L26.111 24.26C26.2717 24.1825 26.413 24.0699 26.5242 23.9304C26.6354 23.791 26.7138 23.6282 26.7535 23.4543L27.3816 20.7028L29.1412 18.4963C29.2524 18.3568 29.3308 18.1941 29.3705 18.0201C29.4102 17.8462 29.4102 17.6656 29.3705 17.4917L28.7425 14.7402L29.3705 11.9887C29.4102 11.8148 29.4102 11.6341 29.3705 11.4602C29.3308 11.2863 29.2524 11.1235 29.1412 10.984L27.3816 8.77756L26.7535 6.02604C26.7138 5.85212 26.6354 5.68937 26.5242 5.5499C26.413 5.41042 26.2717 5.2978 26.111 5.2204L23.5683 3.99586L21.8086 1.78934C21.6974 1.64987 21.5562 1.53725 21.3954 1.45985C21.2347 1.38244 21.0586 1.34225 20.8802 1.34225H18.058L15.5152 0.117563C15.3544 0.0401821 15.1783 0 14.9999 0C14.8215 0 14.6454 0.0401821 14.4846 0.117563L11.9419 1.3421H9.11966C8.94127 1.34209 8.76516 1.38228 8.60443 1.45968C8.4437 1.53709 8.30248 1.64971 8.19126 1.78919L6.43161 3.99572L3.88887 5.22025C3.72815 5.29766 3.58692 5.41028 3.47569 5.54976C3.36446 5.68923 3.28607 5.85197 3.24636 6.0259L2.61832 8.77741L0.85867 10.9839C0.747433 11.1233 0.669058 11.2861 0.629367 11.46C0.589676 11.634 0.58969 11.8146 0.629408 11.9886L1.25737 14.7401L0.629408 17.4915C0.589707 17.6654 0.589702 17.8461 0.629392 18.02C0.669083 18.1939 0.747449 18.3566 0.85867 18.4961L2.61832 20.7027L3.24636 23.4542C3.28606 23.6281 3.36444 23.7908 3.47568 23.9303C3.58691 24.0698 3.72814 24.1824 3.88887 24.2598L6.43161 25.4843L8.19126 27.6909C8.30249 27.8303 8.44371 27.943 8.60444 28.0204C8.76517 28.0978 8.94127 28.138 9.11966 28.138H11.9419L14.4846 29.3625C14.6454 29.4399 14.8215 29.4801 14.9999 29.4801C15.1783 29.4801 15.3544 29.4399 15.5151 29.3625L18.0578 28.138H20.8801L20.8802 28.1381ZM14.9999 25.1308C9.27055 25.1308 4.60931 20.4695 4.60931 14.7401C4.60931 9.01075 9.27055 4.34952 14.9999 4.34952C20.7293 4.34952 25.3906 9.01075 25.3906 14.7401C25.3906 20.4695 20.7293 25.1308 14.9999 25.1308Z" fill="black" fill-opacity="0.9"/>
<path d="M15 5.53699C9.92537 5.53699 5.79688 9.66548 5.79688 14.7401C5.79688 19.8147 9.92537 23.9432 15 23.9432C20.0746 23.9432 24.2031 19.8147 24.2031 14.7401C24.2031 9.66548 20.0746 5.53699 15 5.53699ZM15.2459 17.4647C15.1357 17.5751 15.0047 17.6627 14.8606 17.7223C14.7165 17.782 14.562 17.8127 14.406 17.8125C14.1364 17.8128 13.8748 17.721 13.6644 17.5523L10.6957 15.1773L12.1793 13.3228L14.3181 15.0339L17.7228 11.6292L19.4021 13.3085L15.2459 17.4648V17.4647Z" fill="black" fill-opacity="0.9"/>
</svg>
