<svg width="38" height="30" viewBox="0 0 38 30" fill="none" xmlns="http://www.w3.org/2000/svg">
<path d="M36.3672 3.5509C36.3672 2.86196 36.0935 2.20124 35.6064 1.71408C35.1192 1.22693 34.4585 0.953247 33.7695 0.953247H2.59766C1.90872 0.953247 1.24799 1.22693 0.760836 1.71408C0.273681 2.20124 0 2.86196 0 3.5509L0 5.82051H36.3672V3.5509ZM21.6719 15.2277C21.6729 14.3423 22.025 13.4933 22.6512 12.8672C23.2773 12.2411 24.1262 11.8889 25.0117 11.8879C26.0358 11.8897 27.0349 11.5713 27.8691 10.9772L29.0158 10.1608C29.5808 9.7596 30.2566 9.54405 30.9496 9.54405C31.6426 9.54405 32.3184 9.7596 32.8834 10.1608L34.0293 10.9772C34.7191 11.4694 35.5245 11.7747 36.3672 11.8634V8.04708H0V23.607C0 24.296 0.273681 24.9567 0.760836 25.4439C1.24799 25.931 1.90872 26.2047 2.59766 26.2047H23.1926C22.1918 24.376 21.6687 22.3243 21.6719 20.2397V15.2277ZM5.08324 13.2595H5.81059C5.95678 13.2595 6.10155 13.2883 6.23662 13.3442C6.37169 13.4001 6.49442 13.4822 6.59779 13.5855C6.70117 13.6889 6.78318 13.8116 6.83912 13.9467C6.89507 14.0818 6.92387 14.2265 6.92387 14.3727C6.92387 14.5189 6.89507 14.6637 6.83912 14.7988C6.78318 14.9338 6.70117 15.0566 6.59779 15.1599C6.49442 15.2633 6.37169 15.3453 6.23662 15.4013C6.10155 15.4572 5.95678 15.486 5.81059 15.486H5.08324C4.93704 15.486 4.79228 15.4572 4.65721 15.4013C4.52214 15.3453 4.39941 15.2633 4.29603 15.1599C4.19266 15.0566 4.11065 14.9338 4.0547 14.7988C3.99876 14.6637 3.96996 14.5189 3.96996 14.3727C3.96996 14.2265 3.99876 14.0818 4.0547 13.9467C4.11065 13.8116 4.19266 13.6889 4.29603 13.5855C4.39941 13.4822 4.52214 13.4001 4.65721 13.3442C4.79228 13.2883 4.93704 13.2595 5.08324 13.2595ZM14.6107 20.2501H5.08324C4.78798 20.2501 4.50481 20.1328 4.29603 19.924C4.08725 19.7153 3.96996 19.4321 3.96996 19.1368C3.96996 18.8416 4.08725 18.5584 4.29603 18.3496C4.50481 18.1409 4.78798 18.0236 5.08324 18.0236H14.6107C14.906 18.0236 15.1891 18.1409 15.3979 18.3496C15.6067 18.5584 15.724 18.8416 15.724 19.1368C15.724 19.4321 15.6067 19.7153 15.3979 19.924C15.1891 20.1328 14.906 20.2501 14.6107 20.2501ZM14.6107 15.486H10.1776C9.88236 15.486 9.59919 15.3687 9.39041 15.1599C9.18163 14.9512 9.06434 14.668 9.06434 14.3727C9.06434 14.0775 9.18163 13.7943 9.39041 13.5855C9.59919 13.3767 9.88236 13.2595 10.1776 13.2595H14.6107C14.906 13.2595 15.1891 13.3767 15.3979 13.5855C15.6067 13.7943 15.724 14.0775 15.724 14.3727C15.724 14.668 15.6067 14.9512 15.3979 15.1599C15.1891 15.3687 14.906 15.486 14.6107 15.486Z" fill="black" fill-opacity="0.9"/>
<path d="M36.8867 14.1144C35.4007 14.1169 33.9512 13.6548 32.7409 12.7926L31.5934 11.9762C31.4052 11.8426 31.1801 11.7709 30.9492 11.7709C30.7184 11.7709 30.4933 11.8426 30.305 11.9762L29.1576 12.7926C27.9473 13.6548 26.4977 14.1169 25.0117 14.1144C24.7165 14.1144 24.4333 14.2317 24.2245 14.4405C24.0157 14.6493 23.8984 14.9325 23.8984 15.2277V20.2397C23.8983 22.3268 24.5366 24.3641 25.7275 26.0781C26.9184 27.7921 28.605 29.1008 30.5611 29.8288C30.8114 29.9219 31.087 29.9219 31.3374 29.8288C33.2934 29.1008 34.9801 27.7921 36.171 26.0781C37.3619 24.3641 38.0001 22.3268 38 20.2397V15.2277C38 14.9325 37.8827 14.6493 37.6739 14.4405C37.4651 14.2317 37.182 14.1144 36.8867 14.1144ZM34.0115 20.0408L31.3144 23.1023C31.2099 23.2209 31.0814 23.3159 30.9373 23.381C30.7933 23.446 30.6371 23.4797 30.479 23.4797C30.321 23.4797 30.1648 23.446 30.0207 23.381C29.8767 23.3159 29.7482 23.2209 29.6437 23.1023L27.887 21.1088C27.7903 20.9991 27.7162 20.8714 27.669 20.733C27.6217 20.5946 27.6021 20.4483 27.6114 20.3024C27.6301 20.0076 27.7651 19.7324 27.9868 19.5372C28.2084 19.3421 28.4985 19.2429 28.7932 19.2617C29.088 19.2804 29.3632 19.4154 29.5584 19.6371L30.4787 20.6821L32.3401 18.5691C32.5352 18.3474 32.8105 18.2124 33.1052 18.1937C33.3999 18.1749 33.69 18.2741 33.9117 18.4692C34.1333 18.6644 34.2683 18.9396 34.2871 19.2343C34.3058 19.5291 34.2067 19.8192 34.0115 20.0408Z" fill="black" fill-opacity="0.9"/>
</svg>
