<svg width="209" height="42" viewBox="0 0 209 42" fill="none" xmlns="http://www.w3.org/2000/svg">
<g clip-path="url(#clip0_182_3855)">
<path fill-rule="evenodd" clip-rule="evenodd" d="M59.1443 22.0521L57.0551 27.4497C56.3579 29.7151 56.0099 30.7592 57.9251 31.4563V31.6314H50.7842V31.4563C53.0485 30.4111 53.7456 28.1479 54.4427 26.0565L61.0606 9.86054C61.5826 8.46737 62.2797 6.72509 60.3634 6.20306V6.02905H66.4592L74.6453 26.0576C75.5164 28.1501 76.2125 30.4122 78.4768 31.4574V31.6324H70.4658V31.4574C72.381 30.5873 72.033 30.2371 70.9878 27.4508L68.8986 22.0532L59.1443 22.0521ZM64.0209 9.33742L60.1894 19.2636H67.8535L64.0209 9.33742Z" fill="black"/>
<path fill-rule="evenodd" clip-rule="evenodd" d="M86.1408 6.02905C91.3655 6.02905 94.1518 8.81538 94.1518 12.2988C94.1518 15.7823 91.1926 18.3946 88.056 19.2636L93.6298 26.2316C95.197 28.1479 97.6353 30.236 99.8996 31.6314H96.2421C94.1507 31.6314 92.9327 31.1082 91.7135 29.7151L87.0109 23.7933L83.5274 18.3936C86.6629 17.8715 90.1463 16.4773 90.1463 12.8198C90.1463 10.0335 87.708 8.46628 85.2697 8.46628C84.2246 8.6403 83.5274 8.64029 82.4834 8.8143V26.2316C82.4834 27.9728 82.3083 30.7591 84.2246 31.4563V31.6314H76.9096V31.4563C78.8259 30.7591 78.6508 27.9728 78.6508 26.2316V11.6017C78.6508 9.86054 78.8259 6.8991 76.9096 6.20306V6.02905H86.1408Z" fill="black"/>
<path fill-rule="evenodd" clip-rule="evenodd" d="M120.624 8.64138C120.972 7.77024 121.146 6.8991 121.146 6.20306V6.02905H127.939V6.20306C127.067 6.55108 126.719 7.59623 126.719 8.46737L129.332 27.6259C129.505 29.3671 129.679 30.4122 131.246 31.4574V31.6324H123.757V31.4574C125.151 31.1093 125.326 29.8891 125.326 28.671L123.06 9.86162L114.526 32.1545C112.435 30.5884 111.914 29.5432 111.043 27.4508L103.731 10.0345L101.467 26.5807C101.119 29.019 100.945 30.7602 102.686 31.4574V31.6324H96.4161V31.4574C97.9833 30.0642 98.3313 28.149 98.5064 26.0576L100.771 9.86162C100.945 8.81647 101.293 7.24929 99.5516 6.20414V6.03013H106.344V6.20414C106.344 6.72617 106.693 7.4233 106.867 7.94533L114.181 25.0135L120.624 8.64138Z" fill="black"/>
<path fill-rule="evenodd" clip-rule="evenodd" d="M157.373 18.5697C157.373 26.5807 150.929 32.3274 143.091 32.3274C135.428 32.3274 128.984 26.7569 128.984 18.7437C128.984 11.4288 135.428 5.33298 143.614 5.50699C151.626 5.3319 157.373 11.6017 157.373 18.5697ZM133.338 18.3946C133.338 23.7944 137.344 29.5421 143.266 29.5421C149.188 29.5421 153.018 25.1875 153.018 19.4387C153.018 13.692 149.361 8.29333 143.266 8.29333C137.344 8.29333 133.338 12.6468 133.338 18.3946ZM175.313 29.019C173.571 31.2822 170.436 32.3274 167.648 32.3274C165.036 32.3274 162.425 31.4573 160.682 29.5432C158.592 27.2778 158.592 24.6644 158.592 21.8781V11.6017C158.592 9.86051 158.94 6.89908 157.025 6.20303V6.02903H164.341V6.20303C162.426 6.89908 162.599 9.86051 162.599 11.6017V21.877C162.599 27.1016 164.864 29.5421 168.696 29.5421C170.96 29.5421 173.223 28.4948 174.442 26.7558C175.314 25.5355 175.314 24.6633 175.314 23.2702V11.6017C175.314 9.86051 175.488 6.89908 173.572 6.20303V6.02903H180.887V6.20303C178.973 6.89908 179.147 9.86051 179.147 11.6017V26.2327C179.147 27.9739 178.973 30.7602 180.887 31.4573V31.6324H175.316V29.019H175.313ZM191.509 6.02903C196.734 6.02903 199.52 8.81536 199.52 12.2988C199.52 15.7823 196.56 18.3946 193.425 19.2636L198.998 26.2316C200.564 28.1479 203.177 30.236 205.268 31.6313H201.785C199.694 31.6313 198.475 31.1082 197.256 29.7151L192.553 23.7933L188.896 18.3935C192.03 17.8715 195.688 16.4773 195.688 12.8198C195.688 10.0334 193.249 8.46626 190.637 8.46626C189.766 8.64027 188.896 8.64027 188.025 8.81428V26.2316C188.025 27.9728 187.851 30.7591 189.766 31.4563V31.6313H182.276V31.4563C184.367 30.7591 184.018 27.9728 184.018 26.2316V11.6017C184.018 9.86051 184.366 6.89908 182.276 6.20303V6.02903H191.509Z" fill="black"/>
<path fill-rule="evenodd" clip-rule="evenodd" d="M7.93964 31.6324H24.4858H16.2127H7.93964ZM12.9914 15.7823H3.06193L11.0751 22.0521L12.9914 15.7823Z" fill="#F23E14"/>
<path fill-rule="evenodd" clip-rule="evenodd" d="M36.3294 31.6324L27.9693 6.02905H34.4131C37.7225 6.02905 39.1157 8.64138 39.8118 10.9068C40.5089 13.1711 46.4307 31.6324 46.4307 31.6324H36.3294ZM29.8845 15.7823L26.7501 6.02905H16.1257L19.2612 15.7823H29.8845Z" fill="#1F1F39"/>
<path fill-rule="evenodd" clip-rule="evenodd" d="M29.7105 15.2592L21.3504 22.0521L24.4859 31.6325H34.9362L29.7105 15.2592Z" fill="#1F1F39"/>
<path fill-rule="evenodd" clip-rule="evenodd" d="M21.3504 22.0521L24.4858 31.6324L16.1257 25.8836L7.93963 31.6324L16.1257 6.02905L19.2612 15.7823H29.1884L21.3504 22.0521Z" fill="#F23E14"/>
</g>
<defs>
<clipPath id="clip0_182_3855">
<rect width="208.333" height="42" fill="white"/>
</clipPath>
</defs>
</svg>
