<svg width="35" height="34" viewBox="0 0 35 34" fill="none" xmlns="http://www.w3.org/2000/svg">
<path fill-rule="evenodd" clip-rule="evenodd" d="M4.9375 27.6993H3.75C3.28212 27.6995 2.8188 27.6074 2.38651 27.4285C1.95421 27.2495 1.56142 26.9871 1.23058 26.6562C0.899745 26.3254 0.637339 25.9326 0.458362 25.5003C0.279384 25.068 0.187344 24.6047 0.1875 24.1368V19.3821C0.1875 18.4372 0.562834 17.5311 1.23093 16.863C1.89903 16.1949 2.80517 15.8196 3.75 15.8196V12.3996C3.75 5.76026 9.13175 0.37732 15.7699 0.37732H20.2301C26.8682 0.374945 32.25 5.75907 32.25 12.4008V16.0226C32.945 16.2682 33.5466 16.7233 33.972 17.3252C34.3974 17.9271 34.6256 18.6462 34.625 19.3833V24.1344C34.6256 24.8715 34.3974 25.5906 33.972 26.1925C33.5466 26.7944 32.945 27.2495 32.25 27.4951V27.6981C32.2503 28.1661 32.1584 28.6296 31.9795 29.062C31.8006 29.4944 31.5382 29.8874 31.2073 30.2183C30.8765 30.5493 30.4836 30.8118 30.0513 30.9908C29.6189 31.1699 29.1555 31.262 28.6875 31.2618H21.7561C21.419 31.9728 20.8872 32.5737 20.2223 32.9945C19.5575 33.4153 18.7869 33.6389 18 33.6392C16.9094 33.6208 15.8697 33.1746 15.1049 32.3968C14.3402 31.619 13.9116 30.5719 13.9116 29.4812C13.9116 28.3904 14.3402 27.3433 15.1049 26.5655C15.8697 25.7877 16.9094 25.3416 18 25.3231C18.9993 25.3237 19.965 25.684 20.7203 26.3382C21.4757 26.9924 21.9703 27.8967 22.1135 28.8856H28.6875C29.0024 28.8856 29.3045 28.7605 29.5272 28.5378C29.7499 28.3151 29.875 28.0131 29.875 27.6981C29.4071 27.6983 28.9438 27.6062 28.5115 27.4273C28.0792 27.2483 27.6864 26.9859 27.3556 26.655C27.0247 26.3242 26.7623 25.9314 26.5834 25.4991C26.4044 25.0668 26.3123 24.6035 26.3125 24.1356V19.3821C26.3125 18.4372 26.6878 17.5311 27.3559 16.863C28.024 16.1949 28.9302 15.8196 29.875 15.8196V12.3996C29.8753 11.1327 29.6261 9.87824 29.1415 8.70773C28.657 7.53722 27.9466 6.47361 27.051 5.57766C26.1554 4.6817 25.092 3.97094 23.9217 3.48596C22.7514 3.00098 21.497 2.75129 20.2301 2.75113H15.7699C14.5029 2.75129 13.2484 3.00102 12.078 3.48608C10.9076 3.97113 9.84423 4.682 8.94859 5.57808C8.05295 6.47416 7.3426 7.5379 6.85813 8.70855C6.37365 9.8792 6.12453 11.1338 6.125 12.4008V16.0226C6.81997 16.2682 7.42164 16.7233 7.84703 17.3252C8.27241 17.9271 8.50056 18.6462 8.5 19.3833V24.1344C8.50031 24.6024 8.40839 25.0659 8.22948 25.4983C8.05057 25.9307 7.78819 26.3237 7.45734 26.6546C7.12648 26.9856 6.73364 27.2481 6.30127 27.4272C5.8689 27.6062 5.40548 27.6995 4.9375 27.6993ZM3.75 18.1946C3.43506 18.1946 3.13301 18.3197 2.91031 18.5424C2.68761 18.7651 2.5625 19.0671 2.5625 19.3821V24.1344C2.56219 24.2905 2.59269 24.445 2.65226 24.5893C2.71182 24.7335 2.79928 24.8645 2.90961 24.9748C3.01994 25.0852 3.15098 25.1726 3.29519 25.2322C3.43941 25.2918 3.59397 25.3223 3.75 25.3219H4.9375C5.25244 25.3219 5.55449 25.1968 5.77719 24.9741C5.99989 24.7514 6.125 24.4494 6.125 24.1344V19.3821C6.12531 19.226 6.09481 19.0715 6.03524 18.9273C5.97568 18.783 5.88822 18.652 5.77789 18.5417C5.66756 18.4314 5.53652 18.3439 5.39231 18.2843C5.24809 18.2248 5.09353 18.1943 4.9375 18.1946H3.75ZM32.25 24.1344V19.3821C32.2503 19.226 32.2198 19.0715 32.1602 18.9273C32.1007 18.783 32.0132 18.652 31.9029 18.5417C31.7926 18.4314 31.6615 18.3439 31.5173 18.2843C31.3731 18.2248 31.2185 18.1943 31.0625 18.1946H29.875C29.5601 18.1946 29.258 18.3197 29.0353 18.5424C28.8126 18.7651 28.6875 19.0671 28.6875 19.3821V24.1344C28.6872 24.2905 28.7177 24.445 28.7773 24.5893C28.8368 24.7335 28.9243 24.8645 29.0346 24.9748C29.1449 25.0852 29.276 25.1726 29.4202 25.2322C29.5644 25.2918 29.719 25.3223 29.875 25.3219H31.0625C31.3774 25.3219 31.6795 25.1968 31.9022 24.9741C32.1249 24.7514 32.25 24.4494 32.25 24.1344ZM16.3209 15.3268C16.0981 15.5494 15.7959 15.6745 15.4809 15.6743C15.1659 15.6742 14.8638 15.549 14.6412 15.3262C14.4185 15.1033 14.2935 14.8012 14.2936 14.4862C14.2937 14.1712 14.4189 13.8691 14.6418 13.6464C15.5325 12.756 16.7405 12.2557 18 12.2557C19.2595 12.2557 20.4675 12.756 21.3582 13.6464C21.4686 13.7567 21.5561 13.8876 21.6159 14.0317C21.6756 14.1758 21.7064 14.3302 21.7064 14.4862C21.7065 14.6422 21.6758 14.7966 21.6162 14.9407C21.5565 15.0849 21.4691 15.2158 21.3588 15.3262C21.2486 15.4365 21.1177 15.524 20.9736 15.5838C20.8295 15.6435 20.6751 15.6743 20.5191 15.6743C20.3631 15.6744 20.2087 15.6437 20.0645 15.5841C19.9204 15.5245 19.7895 15.437 19.6791 15.3268C19.2337 14.8815 18.6298 14.6314 18 14.6314C17.3702 14.6314 16.7663 14.8815 16.3209 15.3268ZM12.9614 11.9661C12.7388 12.1888 12.4368 12.3139 12.1219 12.3139C11.807 12.3139 11.505 12.1888 11.2823 11.9661C11.0596 11.7435 10.9346 11.4415 10.9346 11.1266C10.9346 10.8117 11.0596 10.5097 11.2823 10.287C13.0641 8.5056 15.4805 7.50484 18 7.50484C20.5195 7.50484 22.9359 8.5056 24.7177 10.287C24.934 10.511 25.0537 10.8109 25.051 11.1223C25.0483 11.4337 24.9234 11.7315 24.7032 11.9517C24.4831 12.1718 24.1852 12.2967 23.8739 12.2994C23.5625 12.3021 23.2625 12.1824 23.0386 11.9661C21.702 10.6303 19.8897 9.87982 18 9.87982C16.1103 9.87982 14.298 10.6303 12.9614 11.9661Z" fill="black" fill-opacity="0.9"/>
</svg>
